<?xml version="1.0" encoding="iso-8859-1"?>
<!-- Uploaded to: SVG Repo, www.svgrepo.com, Generator: SVG Repo Mixer Tools -->
<svg height="800px" width="800px" version="1.1" id="Layer_1" xmlns="http://www.w3.org/2000/svg" xmlns:xlink="http://www.w3.org/1999/xlink" 
	 viewBox="0 0 511.986 511.986" xml:space="preserve">
<path style="fill:#CCD1D9;" d="M406.252,368.519l-85.341-85.325c-4.172-4.171-10.922-4.171-15.094,0l-22.624,22.641
	c-2,2-3.125,4.703-3.125,7.531s1.125,5.547,3.125,7.547l85.34,85.324c2.078,2.094,4.812,3.125,7.531,3.125
	c2.734,0,5.469-1.031,7.547-3.125l22.641-22.624c1.999-2,3.124-4.719,3.124-7.531C409.376,373.238,408.251,370.519,406.252,368.519z
	"/>
<path style="fill:#5D9CEC;" d="M302.052,60.663c66.653,66.662,66.653,174.729,0,241.39c-66.654,66.653-174.729,66.653-241.39,0
	c-66.654-66.662-66.654-174.729,0-241.39C127.323-5.998,235.398-5.998,302.052,60.663z"/>
<path style="fill:#434A54;" d="M508.857,448.517L369.939,309.585c-4.172-4.156-10.922-4.156-15.093,0l-45.248,45.279
	c-2,1.999-3.125,4.702-3.125,7.53c0,2.844,1.125,5.547,3.125,7.547l138.917,138.918c2,2,4.703,3.125,7.531,3.125
	c2.844,0,5.547-1.125,7.547-3.125l45.264-45.265C513.029,459.424,513.029,452.674,508.857,448.517z"/>
<path style="fill:#7F4545;" d="M167.51,152.481c4.172,4.164,4.172,10.921,0,15.085c-4.164,4.164-10.921,4.164-15.085,0
	s-4.164-10.922,0-15.085C156.588,148.309,163.346,148.309,167.51,152.481z"/>
<path style="fill:#965353;" d="M233.242,175.551c-15.664-41.233-57.615-56.913-59.388-57.553c-4.039-1.469-8.57-0.375-11.484,2.781
	c-2.914,3.156-3.656,7.75-1.875,11.664c0.078,0.172,7.773,17.312,9.312,42.046c2.055,32.991-7.578,62.365-28.616,87.301
	c-2.68,3.172-3.273,7.609-1.523,11.375s5.523,6.172,9.679,6.172h61.083c3.922,0,7.523-2.156,9.383-5.594
	C239.585,237.158,244.1,204.12,233.242,175.551z"/>
<path style="fill:#FFCE54;" d="M181.572,256.033c-75.599,0-124.16,36.005-124.16,36.005v7.234l49.217,33.437l58.919,19.343h47.764
	l70.912-36.014l21.077-24C305.302,292.038,257.171,256.033,181.572,256.033z"/>
<path style="fill:#8CC153;" d="M185.79,64.226c-9.898-15.351-5.219-41.647-2.586-50.467c1.281-4.226-0.18-8.796-3.656-11.507
	c-3.484-2.711-8.281-3-12.062-0.719c-0.531,0.32-13.07,7.969-24.5,22.061c-15.546,19.18-21.858,41.265-18.257,63.874
	c5.789,36.318,40.139,49.943,41.6,50.506c1.25,0.484,2.547,0.711,3.828,0.711c3.852,0,7.539-2.094,9.429-5.68
	C181.923,128.598,201.907,89.21,185.79,64.226z"/>
<g>
	<path style="fill:#A0D468;" d="M177.181,119.982c-0.781-0.68-19.374-16.687-43.194-16.687c-10.468,0-20.312,3.031-29.28,9.007
		c-16.468,10.983-26.335,31.788-29.312,61.834c-2.085,21.062,0.07,39.1,0.164,39.858c0.594,4.835,4.391,8.648,9.219,9.272
		c0.461,0.062,0.922,0.094,1.375,0.094c4.32,0,8.273-2.625,9.906-6.718c0.047-0.117,4.688-11.655,12.906-24.679
		c10.335-16.374,21.64-27.772,32.686-32.952c23.46-10.999,35.554-22.944,36.054-23.452c2.086-2.086,3.219-4.945,3.117-7.898
		C180.72,124.708,179.408,121.927,177.181,119.982z"/>
	<path style="fill:#A0D468;" d="M284.553,77.781c-0.984-0.867-24.554-21.32-55.139-21.32c-9.132,0-18,1.828-26.374,5.43
		c-37.64,16.195-43.265,62.966-43.483,64.951c-0.328,2.93,0.578,5.867,2.5,8.109c1.914,2.25,4.68,3.594,7.633,3.727
		c0.109,0,1.18,0.047,2.938,0.047c5.171,0,15.476-0.375,26.46-2.906c14.929-3.438,26.069-9.656,33.092-18.492
		c15.953-20.054,45.202-20.866,45.467-20.866c4.406-0.062,8.328-2.828,9.859-6.968C289.037,85.358,287.865,80.702,284.553,77.781z"
		/>
</g>
<g>
	<path style="fill:#7F4545;" d="M232.327,245.368c2.406-7.172,4.172-14.18,5.281-21.016c-0.82-0.203-1.672-0.32-2.555-0.32h-17.109
		c-5.891,0-10.671,4.773-10.671,10.664s4.78,10.672,10.671,10.672L232.327,245.368L232.327,245.368z"/>
	<path style="fill:#7F4545;" d="M186.728,181.355h-16.671c0.102,7.289-0.398,14.382-1.477,21.289
		c0.344,0.031,0.688,0.055,1.031,0.055h17.117c5.89,0,10.664-4.781,10.664-10.672C197.391,186.136,192.618,181.355,186.728,181.355z
		"/>
</g>
<g>
	<path style="fill:#F6BB42;" d="M124.839,291.163c4.164,4.172,4.164,10.922,0,15.078c-4.164,4.172-10.921,4.172-15.085,0
		c-4.164-4.156-4.164-10.906,0-15.078C113.918,286.991,120.675,286.991,124.839,291.163z"/>
	<path style="fill:#F6BB42;" d="M146.174,269.828c4.172,4.164,4.172,10.914,0,15.085c-4.164,4.172-10.921,4.172-15.085,0
		c-4.164-4.171-4.164-10.921,0-15.085S142.01,265.664,146.174,269.828z"/>
	<path style="fill:#F6BB42;" d="M167.51,291.163c4.172,4.172,4.172,10.922,0,15.078c-4.164,4.172-10.921,4.172-15.085,0
		c-4.164-4.156-4.164-10.906,0-15.078S163.346,286.991,167.51,291.163z"/>
	<path style="fill:#F6BB42;" d="M188.853,269.828c4.164,4.164,4.164,10.914,0,15.085c-4.172,4.172-10.922,4.172-15.093,0
		c-4.164-4.171-4.164-10.921,0-15.085C177.931,265.664,184.681,265.664,188.853,269.828z"/>
	<path style="fill:#F6BB42;" d="M210.187,291.163c4.164,4.172,4.164,10.922,0,15.078c-4.171,4.172-10.921,4.172-15.093,0
		c-4.164-4.156-4.164-10.906,0-15.078C199.266,286.991,206.016,286.991,210.187,291.163z"/>
	<path style="fill:#F6BB42;" d="M231.523,269.828c4.164,4.164,4.164,10.914,0,15.085c-4.172,4.172-10.921,4.172-15.085,0
		c-4.172-4.171-4.172-10.921,0-15.085C220.601,265.664,227.351,265.664,231.523,269.828z"/>
	<path style="fill:#F6BB42;" d="M252.858,291.163c4.164,4.172,4.164,10.922,0,15.078c-4.164,4.172-10.922,4.172-15.085,0
		c-4.172-4.156-4.172-10.906,0-15.078C241.936,286.991,248.694,286.991,252.858,291.163z"/>
	<path style="fill:#F6BB42;" d="M146.174,312.491c4.172,4.172,4.172,10.937,0,15.093c-4.164,4.172-10.921,4.172-15.085,0
		c-4.164-4.156-4.164-10.921,0-15.093C135.253,308.335,142.01,308.335,146.174,312.491z"/>
	<path style="fill:#F6BB42;" d="M188.853,312.491c4.164,4.172,4.164,10.937,0,15.093c-4.172,4.172-10.922,4.172-15.093,0
		c-4.164-4.156-4.164-10.921,0-15.093C177.931,308.335,184.681,308.335,188.853,312.491z"/>
	<path style="fill:#F6BB42;" d="M231.523,312.491c4.164,4.172,4.164,10.937,0,15.093c-4.172,4.172-10.921,4.172-15.085,0
		c-4.172-4.156-4.172-10.921,0-15.093C220.601,308.335,227.351,308.335,231.523,312.491z"/>
</g>
<path style="fill:#E6E9ED;" d="M181.361,362.707c-48.444,0-93.989-18.857-128.238-53.122C18.866,275.336,0.008,229.798,0,181.355
	c0-48.436,18.866-93.981,53.123-128.238C87.38,18.868,132.917,0.002,181.361,0.002c48.443,0,93.973,18.866,128.238,53.115
	c34.249,34.257,53.106,79.802,53.106,128.238c0,48.443-18.857,93.981-53.106,128.23
	C275.334,343.849,229.804,362.707,181.361,362.707z M181.361,21.337c-42.741,0-82.927,16.648-113.152,46.874
	c-30.226,30.217-46.866,70.403-46.866,113.144c0,42.748,16.64,82.934,46.866,113.152c30.226,30.233,70.404,46.874,113.152,46.874
	c42.741,0,82.927-16.641,113.144-46.874c30.234-30.226,46.874-70.404,46.874-113.152c0-42.741-16.64-82.927-46.874-113.152
	C264.288,37.985,224.101,21.337,181.361,21.337z"/>
</svg>